<?xml version="1.0" encoding="utf-8"?>
<!-- Generator: Adobe Illustrator 23.0.2, SVG Export Plug-In . SVG Version: 6.00 Build 0)  -->
<svg version="1.1" id="Layer_1" xmlns="http://www.w3.org/2000/svg" xmlns:xlink="http://www.w3.org/1999/xlink" x="0px" y="0px"
	 viewBox="0 0 576 105.5" style="enable-background:new 0 0 576 105.5;" xml:space="preserve">
<style type="text/css">
	.st0{fill:#009ADD;}
</style>
<g>
	<g>
		<g>
			<g>
				<path class="st0" d="M380.6,43.6c-1.4,1.6-3.9,3.3-8.2,3.3c-6.5,0-11.5-4.6-11.5-11.6s5-11.6,11.5-11.6c4.2,0,6.7,1.8,8,3
					l-1.3,2.5c-0.9-1.1-3.4-2.7-6.5-2.7c-4.8,0-8.4,3.5-8.4,8.8s3.5,8.8,8.4,8.8c3,0,5.2-1.1,6.7-2.7L380.6,43.6z"/>
				<path class="st0" d="M390.3,46.9c-4.6,0-8.2-3.2-8.2-8s3.6-8.1,8.2-8.1s8.2,3.3,8.2,8.1S394.9,46.9,390.3,46.9z M390.3,33.3
					c-3.1,0-5,2.4-5,5.4c0,3.1,1.9,5.5,5,5.5s5-2.4,5-5.5C395.3,35.7,393.4,33.3,390.3,33.3z"/>
				<path class="st0" d="M415.2,46.5H412v-8.6c0-2.6-0.5-4.6-3.2-4.6c-2.9,0-4,2.4-4,5.4v7.8h-3.1V31.1h3.1v2.4h0.1
					c0.8-1.5,2.5-2.7,4.7-2.7c4.4,0,5.5,2.9,5.5,6.6v9.1H415.2z"/>
				<path class="st0" d="M428.2,45.5c-1.1,0.9-2.5,1.4-4.3,1.4c-2.6,0-4.7-1.1-6-2.8l1.5-1.8c1.2,1.4,3.1,2.2,4.6,2.2
					c1.4,0,3-0.5,3-2.2s-2.4-2.2-3.5-2.6c-1-0.4-1.4-0.4-2.1-0.8c-1-0.5-2.4-1.5-2.4-3.7c0-2.9,2.5-4.4,5.2-4.4s4.3,1,5.3,2
					l-1.3,1.9c-0.9-0.9-2.4-1.7-3.9-1.7s-2.5,0.6-2.5,1.9s1.5,1.8,3,2.3c0.8,0.3,1.4,0.5,2.1,0.7c0.6,0.3,1.3,0.7,1.8,1.1
					c0.6,0.6,1.2,1.5,1.2,2.9C429.7,43.5,429.2,44.7,428.2,45.5z"/>
				<path class="st0" d="M446.8,39.6h-11.9c0.2,3.1,2.1,4.9,5,4.9s4.8-1.6,5.1-1.8l1.3,1.8c-0.2,0.2-2.2,2.4-6.8,2.4
					s-7.7-3.2-7.7-8.1s3.5-8,7.8-8s7.3,3.1,7.3,7.4C446.9,38.8,446.8,39.6,446.8,39.6z M444,37.5c0-1.7-1.3-4.4-4.5-4.4
					c-3.1,0-4.5,2.6-4.6,4.4H444z"/>
				<path class="st0" d="M451.7,27.9c-1.2,0-2-0.8-2-1.9s0.8-1.9,2-1.9s2,0.8,2,1.9S452.9,27.9,451.7,27.9z M453.3,46.5h-3.1V31.1
					h3.1V46.5z"/>
				<path class="st0" d="M460.9,46.5h-3.1V24.1h3.1V46.5z"/>
				<path class="st0" d="M486.8,46.5h-3v-2.4h-0.1c-1.3,1.9-3.2,2.8-5.4,2.8c-4.6,0-7.5-3.5-7.5-8.1s2.9-8,7.5-8
					c2.5,0,4.3,1.1,5.4,2.7h0.1v-9.4h3.1L486.8,46.5L486.8,46.5z M478.9,33.3c-3.1,0-4.9,2.3-4.9,5.4s1.8,5.5,4.9,5.5
					c3.1,0,4.9-2.4,4.9-5.5C483.8,35.7,482,33.3,478.9,33.3z"/>
				<path class="st0" d="M505.3,39.6h-11.9c0.2,3.1,2.1,4.9,5,4.9s4.8-1.6,5.1-1.8l1.3,1.8c-0.2,0.2-2.2,2.4-6.8,2.4
					s-7.7-3.2-7.7-8.1s3.5-8,7.8-8s7.3,3.1,7.3,7.4C505.4,38.8,505.3,39.6,505.3,39.6z M502.5,37.5c0-1.7-1.3-4.4-4.5-4.4
					c-3.1,0-4.5,2.6-4.6,4.4H502.5z"/>
				<path class="st0" d="M517.3,45.5c-1.1,0.9-2.5,1.4-4.3,1.4c-2.6,0-4.7-1.1-6-2.8l1.5-1.8c1.2,1.4,3.1,2.2,4.6,2.2
					c1.4,0,3-0.5,3-2.2s-2.4-2.2-3.5-2.6c-1-0.4-1.4-0.4-2.1-0.8c-1-0.5-2.4-1.5-2.4-3.7c0-2.9,2.5-4.4,5.2-4.4c2.7,0,4.3,1,5.3,2
					l-1.3,1.9c-0.9-0.9-2.4-1.7-3.9-1.7c-1.5,0-2.5,0.6-2.5,1.9s1.5,1.8,3,2.3c0.8,0.3,1.4,0.5,2.1,0.7c0.6,0.3,1.3,0.7,1.8,1.1
					c0.6,0.6,1.2,1.5,1.2,2.9C518.9,43.5,518.3,44.7,517.3,45.5z"/>
				<path class="st0" d="M540.5,46.5h-3v-2c-0.6,0.7-2.1,2.3-4.9,2.3c-2.9,0-5.3-1.8-5.3-4.8s2.5-4.6,6.1-4.7l4.1-0.2v-0.6
					c0-2.3-1.6-3.5-3.8-3.5s-4.1,1-4.7,1.3l-0.9-2.1c1.1-0.7,3.2-1.6,5.8-1.6s4.1,0.7,5.1,1.8c1,1.1,1.7,2.4,1.7,5v9.1H540.5z
					 M537.4,39.1l-3.6,0.2c-2.5,0.1-3.5,1.2-3.5,2.7s1.1,2.7,3.2,2.7c2,0,3.4-1.4,3.9-2.2L537.4,39.1L537.4,39.1z"/>
				<path class="st0" d="M552.9,34L552.9,34c-0.4-0.1-0.9-0.3-1.8-0.3c-1.4,0-2.2,0.9-2.5,1.3s-0.9,1.6-0.9,3.9v7.7h-3.1V31.1h3.1
					v2.4h0.1c0.7-1.8,2.1-2.7,3.8-2.7c1,0,1.6,0.3,1.6,0.3L552.9,34z"/>
				<path class="st0" d="M562.9,46.4c0,0-1.2,0.5-2.8,0.5s-2.6-0.6-3.3-1.6c-0.6-1-0.8-2.2-0.8-4.6v-7.1h-2.3v-2.5h2.3v-4.6h3.1v4.6
					h3.7v2.5h-3.7v7c0,1.3,0,2.2,0.4,2.8c0.3,0.5,0.7,0.8,1.6,0.8c0.9,0,1.6-0.4,1.6-0.4L562.9,46.4z"/>
				<path class="st0" d="M574.3,45.5c-1.1,0.9-2.5,1.4-4.3,1.4c-2.6,0-4.7-1.1-6-2.8l1.5-1.8c1.2,1.4,3.1,2.2,4.6,2.2
					c1.4,0,3-0.5,3-2.2s-2.4-2.2-3.5-2.6c-1-0.4-1.4-0.4-2.1-0.8c-1-0.5-2.4-1.5-2.4-3.7c0-2.9,2.5-4.4,5.2-4.4s4.3,1,5.3,2
					l-1.3,1.9c-0.9-0.9-2.4-1.7-3.9-1.7s-2.5,0.6-2.5,1.9s1.5,1.8,3,2.3c0.8,0.3,1.4,0.5,2.1,0.7c0.6,0.3,1.3,0.7,1.8,1.1
					c0.6,0.6,1.2,1.5,1.2,2.9C575.9,43.5,575.3,44.7,574.3,45.5z"/>
				<path class="st0" d="M376.8,83.1h-3v-2.5h-0.1c-1.3,1.9-3.2,2.8-5.4,2.8c-4.6,0-7.5-3.5-7.5-8.1s2.9-8,7.5-8
					c2.5,0,4.3,1.1,5.4,2.7h0.1v-9.4h3.1v22.5H376.8z M368.9,69.9c-3.1,0-4.9,2.3-4.9,5.4s1.8,5.5,4.9,5.5s4.9-2.4,4.9-5.5
					C373.8,72.3,372,69.9,368.9,69.9z"/>
				<path class="st0" d="M394.4,83.1h-3v-2.2c-0.8,1.5-2.6,2.6-4.8,2.6c-2.2,0-3.5-0.8-4.3-1.8s-1.1-2.6-1.1-4.8v-9.3h3.1v9.1
					c0,2.1,0.5,4.1,3.2,4.1s3.8-2.3,3.8-4.9v-8.3h3.1L394.4,83.1L394.4,83.1z"/>
				<path class="st0" d="M423.9,80.2c-1.4,1.6-3.9,3.3-8.2,3.3c-6.5,0-11.5-4.6-11.5-11.6s5-11.6,11.5-11.6c4.2,0,6.7,1.8,8,3
					l-1.3,2.5c-0.9-1.1-3.4-2.7-6.5-2.7c-4.9,0-8.4,3.5-8.4,8.8s3.5,8.8,8.4,8.8c3,0,5.2-1.1,6.7-2.7L423.9,80.2z"/>
				<path class="st0" d="M438.8,83.1h-3v-2c-0.6,0.7-2.1,2.3-4.9,2.3c-2.9,0-5.3-1.8-5.3-4.8s2.5-4.6,6.1-4.7l4.1-0.2v-0.6
					c0-2.3-1.6-3.5-3.8-3.5s-4.1,1-4.7,1.3l-0.9-2.1c1.1-0.6,3.2-1.6,5.8-1.6s4.1,0.7,5.1,1.8c1,1.1,1.7,2.4,1.7,5v9.1H438.8z
					 M435.7,75.7l-3.6,0.2c-2.5,0.1-3.5,1.2-3.5,2.7s1.1,2.7,3.2,2.7c2,0,3.4-1.4,3.9-2.2L435.7,75.7L435.7,75.7z"/>
				<path class="st0" d="M456.3,83.1h-3.1v-8.6c0-2.6-0.5-4.6-3.2-4.6c-2.9,0-4,2.4-4,5.4v7.8h-3.1V67.6h3.1V70h0.1
					c0.8-1.5,2.5-2.7,4.7-2.7c4.4,0,5.5,2.9,5.5,6.6V83.1z"/>
				<path class="st0" d="M472.4,83.1h-3v-2c-0.6,0.7-2.1,2.3-4.9,2.3c-2.9,0-5.3-1.8-5.3-4.8s2.5-4.6,6.1-4.7l4.1-0.2v-0.6
					c0-2.3-1.6-3.5-3.8-3.5s-4.1,1-4.7,1.3l-0.9-2.1c1.1-0.6,3.2-1.6,5.8-1.6s4.1,0.7,5.1,1.8c1,1.1,1.7,2.4,1.7,5v9.1H472.4z
					 M469.3,75.7l-3.6,0.2c-2.5,0.1-3.5,1.2-3.5,2.7s1.1,2.7,3.2,2.7c2,0,3.4-1.4,3.9-2.2L469.3,75.7L469.3,75.7z"/>
				<path class="st0" d="M491.4,83.1h-3v-2.5h-0.1c-1.3,1.9-3.2,2.8-5.4,2.8c-4.6,0-7.5-3.5-7.5-8.1s2.9-8,7.5-8
					c2.5,0,4.3,1.1,5.4,2.7h0.1v-9.4h3.1L491.4,83.1L491.4,83.1z M483.5,69.9c-3.1,0-4.9,2.3-4.9,5.4s1.8,5.5,4.9,5.5
					c3.1,0,4.9-2.4,4.9-5.5C488.4,72.3,486.6,69.9,483.5,69.9z"/>
				<path class="st0" d="M507.9,83.1h-3v-2c-0.6,0.7-2.1,2.3-4.9,2.3c-2.9,0-5.3-1.8-5.3-4.8s2.5-4.6,6-4.7l4.1-0.2v-0.6
					c0-2.3-1.6-3.5-3.8-3.5s-4.1,1-4.7,1.3l-0.9-2.1c1.1-0.6,3.2-1.6,5.8-1.6s4.1,0.7,5.1,1.8c1,1.1,1.7,2.4,1.7,5L507.9,83.1
					L507.9,83.1z M504.8,75.7l-3.6,0.2c-2.5,0.1-3.5,1.2-3.5,2.7s1.1,2.7,3.2,2.7c2,0,3.4-1.4,3.9-2.2L504.8,75.7L504.8,75.7z"/>
			</g>
		</g>
		<g>
			<path class="st0" d="M138.3,43.6c-1.4,1.6-3.9,3.3-8.2,3.3c-6.5,0-11.5-4.6-11.5-11.6s5-11.6,11.5-11.6c4.2,0,6.7,1.8,8,3
				l-1.3,2.5c-0.9-1.1-3.4-2.7-6.5-2.7c-4.8,0-8.4,3.5-8.4,8.8s3.5,8.8,8.4,8.8c3,0,5.2-1.1,6.7-2.7L138.3,43.6z"/>
			<path class="st0" d="M153.2,46.5h-3v-2c-0.6,0.7-2.1,2.3-4.9,2.3c-2.9,0-5.3-1.8-5.3-4.8s2.5-4.6,6.1-4.7l4.1-0.2v-0.6
				c0-2.3-1.6-3.5-3.8-3.5s-4.1,1-4.7,1.3l-0.9-2.1c1.1-0.7,3.2-1.6,5.8-1.6c2.6,0,4.1,0.7,5.1,1.8c1,1.1,1.7,2.4,1.7,5v9.1H153.2z
				 M150.1,39.1l-3.6,0.2c-2.5,0.1-3.5,1.2-3.5,2.7s1.1,2.7,3.2,2.7c2,0,3.4-1.4,3.9-2.2V39.1z"/>
			<path class="st0" d="M170.6,46.5h-3.1v-8.6c0-2.6-0.5-4.6-3.2-4.6c-2.9,0-4,2.4-4,5.4v7.8h-3.1V31.1h3.1v2.4h0.1
				c0.8-1.5,2.5-2.7,4.7-2.7c4.4,0,5.5,2.9,5.5,6.6V46.5z"/>
			<path class="st0" d="M186.8,46.5h-3v-2c-0.6,0.7-2.1,2.3-4.9,2.3c-2.9,0-5.3-1.8-5.3-4.8s2.5-4.6,6.1-4.7l4.1-0.2v-0.6
				c0-2.3-1.6-3.5-3.8-3.5c-2.2,0-4.1,1-4.7,1.3l-0.9-2.1c1.1-0.7,3.2-1.6,5.8-1.6s4.1,0.7,5.1,1.8c1,1.1,1.7,2.4,1.7,5v9.1H186.8z
				 M183.7,39.1l-3.6,0.2c-2.5,0.1-3.5,1.2-3.5,2.7s1.1,2.7,3.2,2.7c2,0,3.4-1.4,3.9-2.2V39.1z"/>
			<path class="st0" d="M205.8,46.5h-3v-2.4h-0.1c-1.3,1.9-3.2,2.8-5.4,2.8c-4.6,0-7.5-3.5-7.5-8.1s2.9-8,7.5-8
				c2.5,0,4.3,1.1,5.4,2.7h0.1v-9.4h3.1v22.4H205.8z M197.9,33.3c-3.1,0-4.9,2.3-4.9,5.4s1.8,5.5,4.9,5.5s4.9-2.4,4.9-5.5
				C202.8,35.7,201,33.3,197.9,33.3z"/>
			<path class="st0" d="M222.2,46.5h-3v-2c-0.6,0.7-2.1,2.3-4.9,2.3c-2.9,0-5.3-1.8-5.3-4.8s2.5-4.6,6.1-4.7l4.1-0.2v-0.6
				c0-2.3-1.6-3.5-3.8-3.5c-2.2,0-4.1,1-4.7,1.3l-0.9-2.1c1.1-0.7,3.2-1.6,5.8-1.6c2.6,0,4.1,0.7,5.1,1.8c1,1.1,1.7,2.4,1.7,5v9.1
				H222.2z M219.1,39.1l-3.6,0.2c-2.5,0.1-3.5,1.2-3.5,2.7s1.1,2.7,3.2,2.7c2,0,3.4-1.4,3.9-2.2V39.1z"/>
			<path class="st0" d="M251.5,43.6c-1.4,1.6-3.9,3.3-8.2,3.3c-6.5,0-11.5-4.6-11.5-11.6s5-11.6,11.5-11.6c4.2,0,6.7,1.8,8,3
				l-1.3,2.5c-0.9-1.1-3.4-2.7-6.5-2.7c-4.8,0-8.4,3.5-8.4,8.8s3.5,8.8,8.4,8.8c3,0,5.2-1.1,6.7-2.7L251.5,43.6z"/>
			<path class="st0" d="M261.2,46.9c-4.6,0-8.2-3.2-8.2-8s3.6-8.1,8.2-8.1s8.2,3.3,8.2,8.1C269.4,43.7,265.8,46.9,261.2,46.9z
				 M261.2,33.3c-3.1,0-5,2.4-5,5.4c0,3.1,1.9,5.5,5,5.5s5-2.4,5-5.5C266.2,35.7,264.3,33.3,261.2,33.3z"/>
			<path class="st0" d="M285.7,46.5h-3v-2.2c-0.8,1.5-2.6,2.6-4.8,2.6c-2.2,0-3.5-0.7-4.3-1.8c-0.8-1-1.1-2.6-1.1-4.8v-9.2h3.1v9.1
				c0,2.1,0.5,4.1,3.2,4.1s3.8-2.3,3.8-4.9v-8.3h3.1L285.7,46.5L285.7,46.5z"/>
			<path class="st0" d="M303.5,46.5h-3.1v-8.6c0-2.6-0.5-4.6-3.2-4.6c-2.9,0-4,2.4-4,5.4v7.8H290V31.1h3.1v2.4h0.1
				c0.8-1.5,2.5-2.7,4.7-2.7c4.4,0,5.5,2.9,5.5,6.6L303.5,46.5L303.5,46.5z"/>
			<path class="st0" d="M320.6,44.6c-0.5,0.5-2,2.3-6.2,2.3s-7.8-3.1-7.8-8.1s3.8-8,7.9-8s5.8,2,6,2.2l-1.1,2.3
				c-0.5-0.5-1.9-1.9-4.6-1.9s-5,2.1-5,5.3c0,3.3,2,5.5,5,5.5s4.7-2,4.7-2L320.6,44.6z"/>
			<path class="st0" d="M324.8,27.9c-1.2,0-2-0.8-2-1.9s0.8-1.9,2-1.9s2,0.8,2,1.9S326,27.9,324.8,27.9z M326.4,46.5h-3.1V31.1h3.1
				V46.5z"/>
			<path class="st0" d="M334,46.5h-3.1V24.1h3.1V46.5z"/>
			<path class="st0" d="M127.4,63c0,0-0.9-0.3-1.8-0.3c-2,0-2.4,1.5-2.4,3.3v1.7h3.7v2.5h-3.7v12.9h-3.1V70.2h-2.2v-2.5h2.2v-1.6
				c0-2,0.4-3.3,1-4.1c0.7-0.8,1.9-1.7,3.7-1.7s2.7,0.4,2.7,0.4L127.4,63z"/>
			<path class="st0" d="M135.6,83.5c-4.6,0-8.2-3.2-8.2-8s3.6-8.1,8.2-8.1c4.6,0,8.2,3.3,8.2,8.1C143.7,80.3,140.2,83.5,135.6,83.5z
				 M135.6,69.9c-3.1,0-5,2.4-5,5.4c0,3.1,1.9,5.5,5,5.5s5-2.4,5-5.5C140.6,72.3,138.7,69.9,135.6,69.9z"/>
			<path class="st0" d="M155.4,70.6h-0.1c-0.3-0.1-0.8-0.3-1.7-0.3c-1.4,0-2.2,0.9-2.5,1.3s-0.9,1.6-0.9,3.9v7.7H147V67.7h3.1v2.4
				h0.1c0.7-1.8,2.1-2.7,3.8-2.7c1,0,1.6,0.3,1.6,0.3L155.4,70.6z"/>
			<path class="st0" d="M171.9,83c0,0-1.2,0.5-2.8,0.5c-1.6,0-2.6-0.6-3.3-1.6c-0.6-1-0.8-2.2-0.8-4.6v-7.1h-2.3v-2.5h2.3v-4.6h3.1
				v4.6h3.7v2.5h-3.7v7c0,1.3,0,2.2,0.4,2.8c0.3,0.5,0.7,0.8,1.6,0.8s1.6-0.4,1.6-0.4L171.9,83z"/>
			<path class="st0" d="M188.1,83.1H185v-8.8c0-2.2-0.4-4.4-3.2-4.4c-2.8,0-4,2.4-4,5.5V83h-3.1V60.6h3.1V70h0.1
				c0.8-1.5,2.5-2.7,4.8-2.7c4.5,0,5.5,2.9,5.5,6.5L188.1,83.1L188.1,83.1z"/>
			<path class="st0" d="M206.3,76.2h-11.9c0.2,3.1,2.1,4.9,5,4.9s4.8-1.6,5.1-1.8l1.3,1.8c-0.2,0.2-2.2,2.4-6.8,2.4
				c-4.6,0-7.7-3.2-7.7-8.1s3.5-8,7.8-8s7.3,3.1,7.3,7.4C206.4,75.4,206.3,76.2,206.3,76.2z M203.5,74.1c0-1.7-1.3-4.4-4.5-4.4
				c-3.1,0-4.5,2.6-4.6,4.4H203.5z"/>
			<path class="st0" d="M235,83.1h-3.5l-2.3-5.9h-9.6l-2.3,5.9H214l9.1-22.5h2.8L235,83.1z M228.3,74.7l-3.9-10.1l-3.9,10.1H228.3z"
				/>
			<path class="st0" d="M245.6,70.6h-0.1c-0.3-0.1-0.8-0.3-1.7-0.3c-1.4,0-2.2,0.9-2.5,1.3s-0.9,1.6-0.9,3.9v7.7h-3.1V67.7h3.1v2.4
				h0.1c0.7-1.8,2.1-2.7,3.8-2.7c1,0,1.6,0.3,1.6,0.3L245.6,70.6z"/>
			<path class="st0" d="M255.6,83c0,0-1.2,0.5-2.8,0.5c-1.6,0-2.6-0.6-3.3-1.6c-0.6-1-0.8-2.2-0.8-4.6v-7.1h-2.3v-2.5h2.3v-4.6h3.1
				v4.6h3.7v2.5h-3.7v7c0,1.3,0,2.2,0.4,2.8c0.3,0.5,0.7,0.8,1.6,0.8s1.6-0.4,1.6-0.4L255.6,83z"/>
			<path class="st0" d="M267,82.1c-1.1,0.9-2.5,1.4-4.3,1.4c-2.6,0-4.7-1.1-6-2.8l1.5-1.8c1.2,1.4,3.1,2.2,4.6,2.2
				c1.4,0,3-0.5,3-2.2s-2.4-2.2-3.5-2.6c-1-0.4-1.4-0.4-2.1-0.8c-1-0.5-2.4-1.5-2.4-3.7c0-2.9,2.5-4.4,5.2-4.4s4.3,1,5.3,2l-1.3,1.9
				c-0.9-0.9-2.4-1.7-3.9-1.7s-2.5,0.6-2.5,1.9s1.5,1.8,3,2.3c0.8,0.3,1.4,0.5,2.1,0.7c0.6,0.3,1.3,0.7,1.8,1.1
				c0.6,0.6,1.2,1.5,1.2,2.9C268.6,80.1,268,81.3,267,82.1z"/>
		</g>
	</g>
	<g>
		<path d="M93,84c-5-4.9-19.5-9.1-34.4-10c-1.1,0.8-1.8,1.7-2.2,2.6c12.5,0.6,24.6,4.1,29,8.1c4,3.2,3.4,7.6-1.3,10.6
			c-6.8,4.8-20.9,7-36.2,6.9c-15.3,0.1-29.4-2.1-36.2-6.9c-4.7-3-5.3-7.4-1.2-10.6c4.5-4,16.5-7.6,29-8.1c-0.4-0.9-1.2-1.7-2.2-2.6
			C22.4,74.9,8,79.1,2.9,84c-6.8,6.2-1.4,13.2,13.5,17.6c8.3,2.5,20,3.9,31.5,3.9s23.2-1.4,31.5-3.9C94.3,97.2,99.8,90.2,93,84z"/>
		<path d="M85,33.4c-0.3-4.1-3.6-7.3-7.6-8.8c1.6-2.3,1.9-4.8,0.7-7.6c-1.9-4.4-7-5.8-10.1-5.6c-4.3,0.3-6.9,2.1-11.5,5.6
			c-1.1-0.8-3.2-2.4-4.2-3.2l0,0c0,0,3.1-2.6,6.4-4.3c3.1-1.7,5.2-1.9,5.2-1.9S58.4,0.1,47.8,0l0,0l0,0l0,0l0,0
			C37.2,0.1,31.7,7.6,31.7,7.6s2.1,0.2,5.2,1.9c3.3,1.7,6.4,4.3,6.4,4.3c-0.9,0.7-3.1,2.3-4.2,3.2c-4.6-3.5-7.2-5.3-11.5-5.6
			c-3.1-0.2-8.2,1.2-10.1,5.6c-1.2,2.8-0.9,5.3,0.7,7.6c-4,1.5-7.3,4.7-7.6,8.8c-0.3,4.1,2.1,7.9,6.4,9.7c-1.2,1.5-1.8,3.3-1.8,4.8
			c0,4,3.6,9.4,11.2,9.2c5.7-0.2,7.9-1.9,12.4-5.4c0.3,0.4,3.7,5.9,3.7,15.4c0,0,0.5,7.3-3.1,25.1l0,0c0,1,3.7,1.7,8.3,1.7
			s8.3-0.8,8.3-1.7l0,0c-3.6-17.8-3.1-25.1-3.1-25.1c0-9.6,3.5-15,3.7-15.4c4.5,3.5,6.7,5.2,12.4,5.4c7.6,0.2,11.2-5.2,11.2-9.2
			c0-1.5-0.6-3.2-1.8-4.8C82.9,41.3,85.3,37.5,85,33.4z M67.9,17.1c4-0.2,5.5,2.2,5.2,3.8c-0.4,2-2.9,3.5-5.2,3.2
			c-2.3-0.2-4-1.4-6.7-3.6C63,19.1,65.3,17.3,67.9,17.1z M56.7,24c1.3,1,2.5,1.9,3.5,2.6c0.5,0.4,1,0.8,1.5,1.1
			c-0.7,0.5-1.2,0.9-2,1.5c-0.6,0.4-1.4,1.1-2.3,1.7c-1.4-1-3-2.3-4.9-3.7C53.8,26.2,55.1,25.1,56.7,24z M52.1,20.5
			c-1.3,1-2.5,1.9-4.1,3.2l0,0l0,0c-1.6-1.2-2.8-2.2-4.1-3.2c1-0.8,2.3-1.8,4-3.1l0.1-0.1l0.1,0.1C49.8,18.7,51,19.7,52.1,20.5z
			 M42.2,6.6c0,0,1.4-1.6,5.6-1.6c4.2,0,5.6,1.6,5.6,1.6s-1.1,0.6-2.6,1.7c-2,1.4-2.9,2.2-3,2.2c-0.1-0.1-1-0.9-3-2.2
			C43.3,7.2,42.2,6.6,42.2,6.6z M47.7,30.8l0.2-0.2l0.2,0.2c1.5,1.2,3.1,2.3,4.8,3.6c-1,0.7-1.8,1.3-2.5,1.9
			c-0.7,0.5-1.5,1.1-2.3,1.7L48,38.1L47.9,38c-0.8-0.6-1.6-1.2-2.3-1.7s-1.5-1.2-2.5-1.9C44.6,33.1,46.2,32,47.7,30.8z M39.1,24
			c1.5,1.1,2.9,2.2,4.2,3.2c-1.9,1.5-3.6,2.7-5,3.7c-0.8-0.6-1.7-1.3-2.3-1.7c-0.8-0.6-1.3-1-2-1.5c0.5-0.3,1-0.7,1.5-1.1
			C36.6,25.9,37.9,24.9,39.1,24z M27.9,17.1c2.6,0.1,4.9,2,6.7,3.4c-2.8,2.2-4.5,3.4-6.7,3.6c-2.3,0.3-4.8-1.2-5.2-3.2
			C22.4,19.3,23.9,16.9,27.9,17.1z M16.3,34.5c-0.1-2.1,1.4-5.1,7-5.4c3.8-0.2,6.4,2,10.6,5.1c-3.3,2.5-5.9,4.7-10.7,5
			C19.4,39.5,16.4,36.7,16.3,34.5z M27,51.8c-4,0.2-6.4-1.8-6.2-4c0.1-1.7,3.9-5.7,11.8-2.2c1.1,0.5,2,1.1,2.9,1.8
			C31.6,50.4,30.1,51.7,27,51.8z M39.8,44.2c-1.5-1.4-3.1-2.6-5.2-3.6c1.3-0.8,2.5-1.8,3.8-2.8c0.1-0.1,0.1-0.1,0.1-0.1
			c1.8,1.3,3.5,2.6,5,3.7C42.2,42.4,41,43.3,39.8,44.2z M48,59.2l-0.1,0.5l-0.1-0.5c-1-4.1-2.2-7.7-4-10.4c1.4-1.1,2.7-2.1,4.1-3.1
			c1.3,1,2.6,2,4.1,3.1C50.3,51.5,49,55.1,48,59.2z M56,44.2c-1.2-0.9-2.4-1.8-3.7-2.8c1.5-1.1,3.2-2.4,4.9-3.7c0.1,0,0.1,0,0.1,0.1
			c1.3,1.1,2.5,2,3.8,2.8C59.1,41.6,57.5,42.8,56,44.2z M68.8,51.8c-3.1-0.1-4.5-1.4-8.5-4.3c0.9-0.8,1.8-1.3,2.9-1.8
			c7.9-3.6,11.7,0.4,11.8,2.2C75.2,50,72.8,52,68.8,51.8z M72.6,39.3c-4.8-0.3-7.3-2.5-10.7-5c4.1-3.1,6.8-5.3,10.6-5.1
			c5.6,0.3,7.1,3.3,7,5.4C79.4,36.7,76.4,39.5,72.6,39.3z"/>
	</g>
</g>
</svg>
