<svg id="Layer_1" data-name="Layer 1" xmlns="http://www.w3.org/2000/svg" viewBox="0 0 215.55 216"><defs><style>.cls-1{fill:#e31b23;}.cls-2{fill:#fff;}</style></defs><title>CFAT_logo</title><rect class="cls-1" x="-0.45" width="216" height="216"/><path class="cls-2" d="M17.35,54.52a9.7,9.7,0,0,1-10.06-10c0-5.85,4.14-10,10.36-10a9.38,9.38,0,0,1,6.51,2.3l-2.77,3.88a5.21,5.21,0,0,0-3.55-1.37c-2.78,0-4.81,2-4.81,5.18a4.44,4.44,0,0,0,4.62,4.7,5.94,5.94,0,0,0,2.29-.48,5.8,5.8,0,0,0,1.45-.92l3.11,4.14A10.33,10.33,0,0,1,17.35,54.52Z"/><path class="cls-2" d="M35,54.52A9.7,9.7,0,0,1,25,44.49c0-5.81,4.1-10,10.32-10,3.81,0,6.73,1.82,9.14,5.59L32.08,48a4.77,4.77,0,0,0,3.22,1.18A10.12,10.12,0,0,0,40.7,47l3,4.3A14.57,14.57,0,0,1,35,54.52Zm.37-15.21A4.51,4.51,0,0,0,30.75,44v.3l6.81-4.37A4.37,4.37,0,0,0,35.41,39.31Z"/><path class="cls-2" d="M45.92,35.28l5.07-.6V37.5a6.14,6.14,0,0,1,5.36-3c4,0,5.77,2.36,5.77,7.29V53.56l-5.62.7V42.31c0-1.89-.7-2.85-2.11-2.85-1.78,0-2.85,1.22-2.85,3.4V53.63l-5.62.7Z"/><path class="cls-2" d="M65.19,35.24H67V31.35l5.62-2.25v6.14h3.48v4.92H72.63v5.63c0,2.36,1,3.07,3.74,3.07.26,0,.59,0,.92,0l-1.62,5.62h-.49C69.67,54.44,67,52,67,46.93V40.16H63.9Z"/><path class="cls-2" d="M78.88,35.31,84,34.68v3.45c.85-2.37,2.63-3.48,5.26-3.48.29,0,.63,0,1,0l-1.63,5.74h-.26c-2.55,0-3.77,1.15-3.77,3.66v9.55l-5.63.7Z"/><path class="cls-2" d="M100.2,54.52a9.71,9.71,0,0,1-10.07-10c0-5.81,4.11-10,10.33-10,3.81,0,6.73,1.82,9.13,5.59L97.24,48a4.75,4.75,0,0,0,3.22,1.18,10.12,10.12,0,0,0,5.4-2.15l3,4.3A14.54,14.54,0,0,1,100.2,54.52Zm.37-15.21A4.51,4.51,0,0,0,95.9,44v.3l6.81-4.37A4.33,4.33,0,0,0,100.57,39.31Z"/><path class="cls-2" d="M64.44,82.79H61.33l1.18-4.85h1.93c0-5.18,3-7.92,8.69-7.92h.78l1.29,5.07C74.43,75,73.83,75,73.35,75c-2.22,0-3.29.93-3.29,2.78v.18h3.48v4.85H70.06V96.15L64.44,97Z"/><path class="cls-2" d="M84.93,77.13c6.07,0,10.33,4.22,10.33,10s-4.26,10-10.33,10-10.36-4.25-10.36-10S78.83,77.13,84.93,77.13Zm0,14.47a4.5,4.5,0,1,0,0-9,4.5,4.5,0,1,0,0,9Z"/><path class="cls-2" d="M97.7,78l5.07-.63v3.44c.85-2.37,2.62-3.48,5.25-3.48a8,8,0,0,1,1,0l-1.62,5.74h-.26c-2.56,0-3.78,1.14-3.78,3.66V96.3L97.7,97Z"/><path class="cls-2" d="M77,138.35a6.47,6.47,0,1,1-4.52-10.91A5.83,5.83,0,0,1,76.69,129v-1.74c0-1.37-1-2.14-2.82-2.14a20,20,0,0,0-5.69,1l1-4.77a19,19,0,0,1,5.62-.89q7.17,0,7.18,6.22v13l-5,.56Zm-5.85-4.7a2.48,2.48,0,0,0,2.77,2.48,2.51,2.51,0,0,0,2.82-2.48c0-1.48-1.15-2.44-2.82-2.44S71.1,132.17,71.1,133.65Z"/><path class="cls-2" d="M85.27,121.48l5.07-.63v3.44c.85-2.37,2.63-3.48,5.25-3.48a8.2,8.2,0,0,1,1,0l-1.63,5.74h-.26c-2.55,0-3.78,1.14-3.78,3.66v9.55l-5.62.7Z"/><path class="cls-2" d="M97.18,121.41H99v-3.89l5.62-2.26v6.15h3.48v4.92h-3.48V132c0,2.37,1,3.07,3.74,3.07.26,0,.59,0,.92,0l-1.62,5.62h-.49c-5.51,0-8.17-2.44-8.17-7.51v-6.77H95.89Z"/><path class="cls-2" d="M20,164.24h1.82v-3.89l5.62-2.25v6.14h3.48v4.92H27.43v5.63c0,2.36,1,3.07,3.74,3.07.26,0,.59,0,.92,0l-1.63,5.62H30c-5.51,0-8.17-2.44-8.17-7.51v-6.77H18.7Z"/><path class="cls-2" d="M44,181.19a6.38,6.38,0,0,1-4.77,2.07,6.5,6.5,0,1,1,.26-13,5.77,5.77,0,0,1,4.25,1.56v-1.74c0-1.37-1-2.15-2.81-2.15a19.81,19.81,0,0,0-5.7,1l1-4.78a19,19,0,0,1,5.62-.89c4.77,0,7.18,2.08,7.18,6.22v13l-5,.55Zm-5.84-4.7A2.48,2.48,0,0,0,41,179a2.51,2.51,0,0,0,2.81-2.48C43.78,175,42.64,174,41,174S38.2,175,38.2,176.49Z"/><path class="cls-2" d="M52.37,189.77V164.05l5.25-.51v2.7a6.6,6.6,0,0,1,5.55-2.59c5.81,0,9.66,3.88,9.66,9.65,0,6-3.89,10-9.77,10A6.6,6.6,0,0,1,58,181.41v7.66Zm10.21-11.51A4.81,4.81,0,1,0,58,173.45,4.52,4.52,0,0,0,62.58,178.26Z"/><path class="cls-2" d="M84.41,183.52a9.71,9.71,0,0,1-10.07-10c0-5.81,4.11-10,10.33-10,3.81,0,6.73,1.82,9.14,5.59l-12.36,8a4.77,4.77,0,0,0,3.22,1.18,10.12,10.12,0,0,0,5.4-2.15l3,4.3A14.51,14.51,0,0,1,84.41,183.52Zm.37-15.21A4.51,4.51,0,0,0,80.12,173v.3l6.81-4.37A4.37,4.37,0,0,0,84.78,168.31Z"/><path class="cls-2" d="M97.1,177a7.06,7.06,0,0,0,4.25,1.85c1.56,0,2.52-.66,2.52-1.51,0-1.15-1.07-1.23-3.11-1.74-4-1-5.84-2.56-5.84-5.81,0-3.55,2.81-6.29,7.29-6.29a9.51,9.51,0,0,1,6.36,2.55l-3.22,3.22a5,5,0,0,0-3-1.19c-1.29,0-2,.52-2,1.26,0,1.33,1.92,1.41,4.47,2.15,3,.85,4.44,2.63,4.44,5.29,0,3.85-3.07,6.7-7.84,6.7a11.54,11.54,0,0,1-7.25-2.67Z"/></svg>